# xmcd
#
# Track frame offsets:
# 150
# 14887
# 33325
# 51209
# 63459
# 78721
# 94059
# 111813
# 128317
# 138785
# 150616
# 164697
# 182134
# 201247
# 215786
# 232988
# 250022
# 269199
# 286864
# 304599
#
# Disc length: 4273 seconds
#
#
# Revision: 4
# Processed by: cddbd v1.5.2PL0 Copyright (c) Steve Scherf et al.
# Submitted via: FreeRIP 2.951 
#
DISCID=2310af14
DTITLE=Various Artist - Новая Игрушка 15
DYEAR=2004
DGENRE=Pop
TTITLE0=Гости из будущего - Всё решено
TTITLE1=Серёга - Чёрный бумер
TTITLE2=Глюк'oza - Ой, ой (Remix)
TTITLE3=Hi-Fi - Билет
TTITLE4=Sky - Мальчик ищет маму
TTITLE5=Звери - Южная ночь (Remix)
TTITLE6=Н.Кадышева - Широка река
TTITLE7=А.Губин - Лишь для тебя
TTITLE8=К.Орбакайте - Губки бантиком
TTITLE9=Ф.Киркоров and Cj Кокетка - Килиманджаро (Scandal Remix)
TTITLE10=Уматурман - Прасковья (Remix)
TTITLE11=К.Лель - Две капли
TTITLE12=Иракли - Лондон-Париж (Remix)
TTITLE13=Корни - Вика (Remix)
TTITLE14=Жасмин - Капля лета
TTITLE15=В.Усланов - Танцы на воде (Neo Master Remix)
TTITLE16=А.Макарский - Любоваться
TTITLE17=Фабрика - Рыбка (Remix)
TTITLE18=Чай вдвоём - День рожденья (Dj Skydreamer Remix)
TTITLE19=О.Орлова - Я буду петь
EXTD=
EXTT0=
EXTT1=
EXTT2=
EXTT3=
EXTT4=
EXTT5=
EXTT6=
EXTT7=
EXTT8=
EXTT9=
EXTT10=
EXTT11=
EXTT12=
EXTT13=
EXTT14=
EXTT15=
EXTT16=
EXTT17=
EXTT18=
EXTT19=
PLAYORDER=
